<svg xmlns="http://www.w3.org/2000/svg" viewBox="0 0 141.16 10"><defs><style>.cls-1{fill:#331d0a;}</style></defs><title>Asset 4</title><g id="Layer_2" data-name="Layer 2"><g id="Layer_1-2" data-name="Layer 1"><path class="cls-1" d="M140.06,8c-3,0-4.5-1.7-6.2-3.7s-3.7-4.3-7.7-4.3h0c-3.9,0-5.9,2.3-7.7,4.3s-3.2,3.7-6.2,3.7-4.5-1.7-6.2-3.7v0c-1.7-2-3.69-4.26-7.65-4.28h0c-3.9,0-5.9,2.3-7.7,4.3S87.46,8,84.46,8,80,6.3,78.26,4.3l0,0C76.55,2.28,74.56,0,70.63,0h-.07c-3.9,0-5.9,2.3-7.7,4.3S59.66,8,56.66,8s-4.5-1.7-6.2-3.7l0,0C48.75,2.29,46.76,0,42.8,0h0c-3.9,0-5.9,2.3-7.7,4.3S31.86,8,28.86,8s-4.5-1.7-6.2-3.7S18.86,0,15,0h0c-3.9,0-5.9,2.3-7.7,4.3S4.06,8,1.06,8C1.06,8,0,8,0,9s1.06,1,1.06,1C5,10,7,7.7,8.76,5.7S12,2,15,2s4.5,1.7,6.2,3.7S25,10,28.86,10h0c3.9,0,5.9-2.3,7.7-4.3S39.76,2,42.76,2s4.5,1.7,6.2,3.7S52.74,10,56.6,10h.06c3.9,0,5.9-2.3,7.7-4.3S67.56,2,70.56,2s4.5,1.7,6.2,3.7,3.8,4.3,7.7,4.3h.06c3.86,0,5.85-2.31,7.64-4.3S95.36,2,98.36,2s4.5,1.7,6.2,3.7,3.8,4.3,7.7,4.3h0c3.9,0,5.9-2.3,7.7-4.3s3.2-3.7,6.2-3.7,4.5,1.7,6.2,3.7,3.8,4.3,7.7,4.3c0,0,1.1,0,1.1-1S140.06,8,140.06,8Z"/></g></g></svg>